<?xml version="1.0" encoding="utf-8"?>
<!-- Generator: Adobe Illustrator 17.0.0, SVG Export Plug-In . SVG Version: 6.00 Build 0)  -->
<!DOCTYPE svg PUBLIC "-//W3C//DTD SVG 1.1//EN" "http://www.w3.org/Graphics/SVG/1.1/DTD/svg11.dtd">
<svg version="1.1" id="Layer_1" xmlns="http://www.w3.org/2000/svg" xmlns:xlink="http://www.w3.org/1999/xlink" x="0px" y="0px"
	 width="480px" height="480px" viewBox="0 0 480 480" enable-background="new 0 0 480 480" xml:space="preserve">
<g>
	<path fill="#333132" d="M233.165,131.11c-15.66-6.742-21.775-15.975-19.506-26.681c2.117-9.993,11.344-17.693,21.243-17.728
		c10.216-0.036,19.255,7.44,21.193,17.527c2.203,11.469-3.248,19.984-18.216,26.441c20.113,7.907,22.091,26.806,28.337,42.708
		c30.308,77.165,60.165,154.506,90.18,231.786c0.695,1.79,1.487,3.553,2.031,5.389c2.851,9.637-1.41,18.587-10.361,21.898
		c-8.273,3.06-18.263-0.686-20.975-9.971c-3.357-11.491-9.817-13.619-20.943-13.465c-49.057,0.679-98.131,0.486-147.195,0.1
		c-7.981-0.063-12.169,2.215-14.615,9.864c-1.374,4.297-4.263,8.919-7.833,11.526c-6.227,4.545-13.416,4.062-19.588-0.978
		c-6.902-5.637-7.677-12.928-4.616-20.856c13.256-34.341,26.523-68.677,39.848-102.991c18.425-47.445,36.905-94.868,55.363-142.3
		C212.46,150.66,215.679,136.718,233.165,131.11z M260.967,254.131c-8.659-22.442-16.904-43.809-25.95-67.256
		c-9.06,23.45-17.388,45.003-25.986,67.256C226.533,254.131,242.796,254.131,260.967,254.131z M236.318,329.868
		c-9.329,9.158-18.637,18.294-26.3,25.817c8.816,9.045,18.066,18.535,26.063,26.739c8.814-8.251,18.304-17.135,27.367-25.619
		C254.08,347.504,244.826,338.316,236.318,329.868z M155.284,391.87c21.307,0,41.238,0,58.27,0
		c-13.034-13.451-27.196-28.066-41.524-42.853C166.736,362.564,161.201,376.729,155.284,391.87z M314.718,392.119
		c-5.757-14.921-11.213-29.059-15.791-40.924c-13.895,13.837-27.923,27.806-41.097,40.924
		C274.99,392.119,294.099,392.119,314.718,392.119z M194.478,342.874c9.903-9.395,19.319-18.327,28.045-26.604
		c-9.148-9.148-17.885-17.883-26.64-26.638c0.025-0.024-0.647,0.325-0.865,0.859c-3.016,7.385-6.005,14.782-8.932,22.204
		C178.929,330.845,178.943,330.851,194.478,342.874z M250.13,314.422c8.86,9.513,17.886,19.205,28.438,30.534
		c4.106-6.595,11.365-13.025,10.344-17.612c-2.861-12.854-9.141-24.946-14.193-37.642
		C265.732,298.738,257.444,307.069,250.13,314.422z M208.491,272.289c9.137,9.838,18.521,19.941,26.746,28.798
		c10.146-9.629,19.934-18.918,30.345-28.798C245.632,272.289,226.558,272.289,208.491,272.289z"/>
</g>
<path fill="#333132" d="M107.152,48.37c5.016,4.913,9.545,9.349,14.683,14.381c-16.733,17.489-25.131,37.722-25.066,61.126
	c0.064,23.089,8.12,43.151,24.675,60.68c-4.434,4.749-8.71,9.328-12.973,13.894C74.006,170.94,57.285,97.151,107.152,48.37z"/>
<path fill="#333132" d="M169.758,158.743c-4.23,4.197-8.233,8.168-12.178,12.081c-28.702-23.178-28.376-69.869,0.131-94.321
	c4.274,4.081,8.559,8.174,13.273,12.675C152.751,111.775,151.071,134.862,169.758,158.743z"/>
<path fill="#333132" d="M303.187,90.501c4.632-4.525,8.473-8.276,12.328-12.043c27.477,23.226,27.387,71.267-1.084,93.595
	c-4.24-3.945-8.57-7.975-13.192-12.276C319.754,136.84,320.951,113.769,303.187,90.501z"/>
<path fill="#333132" d="M365.645,199.636c-4.904-5.151-9.263-9.728-13.626-14.312c31.522-34.14,30.985-86.476-0.57-121.792
	c4.296-4.115,8.623-8.259,12.959-12.412C399.351,79.25,414.34,152.886,365.645,199.636z"/>
</svg>
